<?xml version="1.0" standalone="no"?>
<!DOCTYPE svg PUBLIC "-//W3C//DTD SVG 20010904//EN"
 "http://www.w3.org/TR/2001/REC-SVG-20010904/DTD/svg10.dtd">
<svg version="1.0" xmlns="http://www.w3.org/2000/svg"
 width="700.000000pt" height="700.000000pt" viewBox="0 0 700.000000 700.000000"
 preserveAspectRatio="xMidYMid meet">
<metadata>
Created by potrace 1.11, written by Peter Selinger 2001-2013
</metadata>
<g transform="translate(0.000000,700.000000) scale(0.100000,-0.100000)"
fill="#000000" stroke="none">
<path d="M0 6893 l1 -98 922 -437 c507 -240 930 -440 940 -444 16 -6 17 24 17
535 l0 541 -940 0 -940 0 0 -97z"/>
<path d="M2140 6275 l0 -715 -1070 0 -1070 0 0 -355 0 -355 1068 -2 1067 -3 3
-627 2 -628 375 0 375 0 0 630 0 630 1065 0 1065 0 0 355 0 355 -1065 0 -1065
0 0 715 0 715 -375 0 -375 0 0 -715z"/>
<path d="M3140 6446 l0 -544 940 447 940 446 0 98 0 97 -940 0 -940 0 0 -544z"/>
<path d="M4119 6232 l-897 -427 272 -3 271 -2 627 297 628 298 0 133 c0 72 -1
132 -2 131 -2 0 -406 -193 -899 -427z"/>
<path d="M2 6260 l3 -132 346 -164 346 -164 271 2 271 3 -610 290 c-336 160
-615 292 -620 293 -6 3 -8 -48 -7 -128z"/>
<path d="M0 5895 l0 -95 202 0 c111 0 199 2 197 4 -5 5 -390 186 -395 186 -2
0 -4 -43 -4 -95z"/>
<path d="M4815 5895 l-190 -93 198 -1 197 -1 0 95 c0 52 -3 95 -7 94 -5 0 -93
-43 -198 -94z"/>
<path d="M0 4506 l0 -95 118 56 c64 31 153 73 197 94 l80 38 -197 0 -198 1 0
-94z"/>
<path d="M623 4303 l-623 -296 0 -128 c0 -71 3 -129 6 -129 6 0 1777 840 1783
846 2 2 -119 4 -270 4 l-274 -1 -622 -296z"/>
<path d="M3802 4595 c8 -8 1202 -575 1210 -575 5 0 8 58 8 128 l0 128 -341
162 -342 162 -270 0 c-149 0 -268 -2 -265 -5z"/>
<path d="M4641 4596 c2 -3 88 -45 192 -95 l187 -90 0 95 0 94 -192 0 c-105 0
-189 -2 -187 -4z"/>
<path d="M1255 4204 c-341 -162 -763 -363 -937 -446 l-318 -151 0 -98 0 -99
940 0 940 0 0 545 c0 300 -1 545 -2 545 -2 -1 -282 -133 -623 -296z"/>
<path d="M3140 4045 l0 -455 941 0 c679 0 940 3 937 11 -3 8 -1861 899 -1875
899 -2 0 -3 -205 -3 -455z"/>
<path d="M2105 1801 c-4 -978 -4 -1784 -1 -1790 5 -8 676 -11 2432 -11 l2424
0 0 895 0 895 -1067 0 c-884 0 -1069 2 -1082 14 -17 14 -2690 1776 -2695 1776
-2 0 -7 -801 -11 -1779z"/>
</g>
</svg>
